<svg xmlns="http://www.w3.org/2000/svg" viewBox="0 0 228.43 83.01">
  <g>
    <path d="M3.17,22.4l-2.84-3.22C13.92,7.17,37.12,0,62.39,0s48.4,7.15,62,19.13l-2.84,3.22c-12.84-11.31-34.96-18.06-59.17-18.06S16,11.06,3.17,22.4Z" fill="#E8913A"/>
    <path d="M62.39,83.01c-25.3,0-48.53-7.2-62.12-19.27l2.85-3.21c12.83,11.39,34.98,18.18,59.27,18.18s46.32-6.76,59.16-18.1l2.84,3.22c-13.6,12-36.78,19.17-62,19.17Z" fill="#E8913A"/>
  </g>
  <g>
    <g>
      <path d="M20.85,42.19h-6.11v-25.1h6.11v25.1Z" fill="#1B6B6D"/>
      <path d="M46.25,23.74c-1.71-1.66-4.28-2.66-6.9-2.66-5.86,0-9.23,4.33-9.23,8.65s3.49,8.45,9.19,8.45c2.62,0,5.24-1.1,6.94-2.66v5.83c-2.29.87-4.57,1.51-7.11,1.51-8.81,0-15.34-6.11-15.34-13.03s6.28-13.41,15.47-13.41c2.45,0,4.86.53,6.98,1.46v5.85Z" fill="#1B6B6D"/>
      <path d="M48.79,29.6c0-7.02,6.36-13.18,15.51-13.18s15.51,6.16,15.51,13.18-6.36,13.26-15.51,13.26-15.51-6.07-15.51-13.26ZM55.11,29.4c0,3.79,3.99,8.62,9.19,8.62s9.19-4.83,9.19-8.62c0-4.06-3.82-8.15-9.19-8.15s-9.19,4.09-9.19,8.15Z" fill="#1B6B6D"/>
      <path d="M82.83,16.42h4.4l16.5,17.53h.08v-16.86h6.11v25.6h-4.41l-16.5-17.55h-.09v17.05h-6.11v-25.77Z" fill="#1B6B6D"/>
    </g>
    <g>
      <path d="M31.22,68.91h-6.11v-20.84h-6.32v-4.26h18.75v4.26h-6.32v20.84Z" fill="#1B6B6D"/>
      <path d="M43.13,63.6l-2.58,5.31h-6.45l12.22-25.77h4.76l11.9,25.77h-6.53l-2.41-5.31h-10.92ZM48.42,50.5h-.09l-3.46,9.11h7.47l-3.92-9.11Z" fill="#1B6B6D"/>
      <path d="M85.33,50.46c-1.71-1.66-4.28-2.66-6.9-2.66-5.86,0-9.23,4.33-9.23,8.65s3.49,8.45,9.18,8.45c2.62,0,5.24-1.09,6.95-2.66v5.83c-2.29.87-4.58,1.51-7.11,1.51-8.81,0-15.34-6.1-15.34-13.03s6.28-13.41,15.47-13.41c2.46,0,4.87.53,6.99,1.46v5.85Z" fill="#1B6B6D"/>
      <path d="M99.55,68.91h-6.11v-20.84h-6.32v-4.26h18.75v4.26h-6.32v20.84Z" fill="#1B6B6D"/>
    </g>
  </g>
</svg>
